<svg width="390" height="125" viewBox="0 0 390 125" fill="none" xmlns="http://www.w3.org/2000/svg">
<path d="M-35.3224 72.6439L368.222 -61.0001L353.809 -55.4483L384.178 -4.57281L-35.3225 135.505L-43.0433 118.676L-35.3224 72.6439Z" fill="url(#paint0_radial_97_4)"/>
<path d="M49.4827 77.2253L45.2436 65.0798L49.4826 60.3332L60.126 56.8979L66.4846 58.2241L68.1138 62.8919L63.5458 64.3663L62.2804 60.7408L50.1753 64.6478L53.5287 74.2554L64.9029 70.5843L71.2615 71.9104L75.5955 84.3278L71.3564 89.0744L60.2563 92.6571L53.8977 91.331L52.2685 86.6631L56.8364 85.1888L58.1018 88.8143L70.6637 84.7598L67.2155 74.8803L55.8413 78.5514L49.4827 77.2253ZM88.6599 83.2374L77.5876 51.5141L93.5298 46.3686L99.8884 47.6947L104.586 61.1544L100.347 65.9011L88.9729 69.5722L93.2278 81.763L88.6599 83.2374ZM83.5791 54.1185L87.5493 65.4935L99.6544 61.5865L95.6842 50.2114L83.5791 54.1185ZM144.093 62.2193L139.854 66.9659L126.47 71.2858L120.112 69.9596L111.001 43.8559L115.24 39.1093L128.624 34.7894L134.983 36.1156L144.093 62.2193ZM115.933 43.4239L124.316 67.443L139.162 62.6513L130.778 38.6322L115.933 43.4239ZM164.235 44.7762L157.338 47.0025L161.751 59.6465L157.183 61.1208L146.111 29.3976L162.51 24.1046L168.868 25.4307L173.408 38.4373L169.169 43.1839L180.936 53.4541L175.866 55.0907L164.235 44.7762ZM152.102 32.0019L155.914 42.9238L168.476 38.8693L164.664 27.9474L152.102 32.0019ZM192.267 19.0382L201.916 46.6828L197.348 48.1572L187.699 20.5126L178.609 23.4466L177.185 19.3679L199.934 12.0256L201.357 16.1043L192.267 19.0382Z" fill="white"/>
<defs>
<radialGradient id="paint0_radial_97_4" cx="0" cy="0" r="1" gradientUnits="userSpaceOnUse" gradientTransform="translate(-282.465 226.891) rotate(-23.5088) scale(806.03 221.75)">
<stop stop-color="#DF2669"/>
<stop offset="0.416667" stop-color="#A12BCB"/>
<stop offset="0.692708" stop-color="#56489E"/>
</radialGradient>
</defs>
</svg>
