<svg aria-hidden="true" style="position: absolute; width: 0; height: 0; overflow: hidden;" version="1.1" xmlns="http://www.w3.org/2000/svg" xmlns:xlink="http://www.w3.org/1999/xlink">
<defs>
<symbol id="icon-telegram" viewBox="0 0 32 32">
<path d="M29.919 6.163l-4.225 19.925c-0.319 1.406-1.15 1.756-2.331 1.094l-6.438-4.744-3.106 2.988c-0.344 0.344-0.631 0.631-1.294 0.631l0.463-6.556 11.931-10.781c0.519-0.462-0.113-0.719-0.806-0.256l-14.75 9.288-6.35-1.988c-1.381-0.431-1.406-1.381 0.288-2.044l24.837-9.569c1.15-0.431 2.156 0.256 1.781 2.013z"></path>
</symbol>
<symbol id="icon-vk" viewBox="0 0 32 32">
<path d="M6.26 0.487c-3.163 0-5.773 2.611-5.773 5.773v19.479c0 3.163 2.611 5.773 5.773 5.773h19.479c3.163 0 5.773-2.611 5.773-5.773v-19.479c0-3.163-2.611-5.773-5.773-5.773h-19.479zM6.26 3.308h19.479c1.638 0 2.953 1.315 2.953 2.953v19.479c0 1.638-1.315 2.953-2.953 2.953h-19.479c-1.638 0-2.953-1.315-2.953-2.953v-19.479c0-1.638 1.315-2.953 2.953-2.953zM15.603 10.668c-1.035-0.010-1.928 0.020-2.424 0.264-0.33 0.162-0.596 0.508-0.441 0.529 0.192 0.025 0.652 0.128 0.881 0.441 0.298 0.405 0.264 1.322 0.264 1.322s0.173 2.509-0.397 2.821c-0.391 0.213-0.919-0.258-2.071-2.248-0.591-1.020-1.014-2.115-1.014-2.115s-0.111-0.24-0.264-0.353c-0.186-0.137-0.441-0.176-0.441-0.176l-2.732 0.044c0 0-0.422-0.004-0.573 0.176-0.135 0.161-0.044 0.485-0.044 0.485s2.182 5.079 4.627 7.624c2.245 2.333 4.804 2.159 4.804 2.159h1.146c0 0 0.351-0.029 0.529-0.22 0.164-0.176 0.132-0.529 0.132-0.529s-0.013-1.536 0.705-1.763c0.708-0.224 1.636 1.498 2.6 2.159 0.729 0.501 1.278 0.397 1.278 0.397l2.556-0.044c0 0 1.344-0.085 0.705-1.146-0.052-0.086-0.351-0.771-1.895-2.204-1.616-1.501-1.419-1.283 0.529-3.878 1.186-1.581 1.691-2.54 1.542-2.953-0.141-0.393-1.014-0.264-1.014-0.264h-2.909c0 0-0.237-0.008-0.397 0.088-0.157 0.093-0.264 0.308-0.264 0.308s-0.446 1.207-1.058 2.248c-1.292 2.194-1.816 2.295-2.027 2.159-0.492-0.317-0.353-1.259-0.353-1.939 0-2.127 0.334-3.031-0.617-3.261-0.316-0.076-0.558-0.124-1.366-0.132z"></path>
</symbol>
<symbol id="icon-whatsApp" viewBox="0 0 32 32">
<path fill="#a7a7a7" style="fill: var(--color1, #a7a7a7)" d="M31.618 15.494c-0.006 2.756-0.605 5.188-1.814 7.448-1.139 2.133-2.712 3.909-4.692 5.309-1.738 1.229-3.641 2.069-5.723 2.502-2.304 0.477-4.609 0.426-6.894-0.121-1.209-0.293-2.368-0.738-3.457-1.33-0.185-0.102-0.344-0.108-0.541-0.045-2.4 0.77-4.8 1.534-7.2 2.298-0.274 0.089-0.541 0.172-0.815 0.274-0.191 0.070-0.204 0-0.153-0.159 0.28-0.821 0.554-1.642 0.834-2.47 0.598-1.789 1.197-3.578 1.808-5.36 0.083-0.236-0.038-0.388-0.134-0.554-0.751-1.305-1.286-2.693-1.617-4.157-0.719-3.157-0.465-6.251 0.745-9.249 0.7-1.732 1.7-3.285 2.979-4.66 1.63-1.757 3.558-3.049 5.786-3.915 2.082-0.808 4.233-1.12 6.448-0.987 3.037 0.185 5.799 1.19 8.225 3.024 3.138 2.368 5.112 5.481 5.901 9.345 0.21 0.987 0.286 1.986 0.312 2.807zM16.118 2.897c-0.592-0.025-1.286 0.045-1.98 0.146-0.274 0.038-0.541 0.095-0.808 0.166-4.138 1.050-7.111 3.52-8.861 7.41-1.012 2.247-1.286 4.622-0.904 7.053 0.299 1.922 1.012 3.692 2.126 5.29 0.121 0.178 0.14 0.331 0.070 0.528-0.471 1.381-0.929 2.769-1.394 4.157-0.025 0.076-0.102 0.166-0.032 0.236 0.070 0.076 0.159-0.006 0.236-0.032 1.394-0.446 2.788-0.885 4.17-1.35 0.318-0.108 0.547-0.057 0.821 0.108 3.126 1.878 6.468 2.374 9.988 1.439 2.674-0.707 4.876-2.164 6.62-4.316 1.687-2.082 2.629-4.462 2.82-7.123 0.146-2.043-0.172-4.029-0.987-5.927-1.025-2.387-2.623-4.297-4.781-5.716-2.113-1.388-4.45-2.101-7.104-2.069z"></path>
<path fill="#a7a7a7" style="fill: var(--color1, #a7a7a7)" d="M8.517 11.988c0.025-1.432 0.586-2.61 1.681-3.527 0.312-0.261 0.688-0.369 1.101-0.299 0.178 0.025 0.363 0.051 0.535 0.032 0.433-0.032 0.681 0.21 0.815 0.567 0.407 1.069 0.802 2.145 1.203 3.215 0.076 0.204 0.057 0.388-0.038 0.579-0.248 0.516-0.643 0.917-1.038 1.318-0.344 0.35-0.363 0.465-0.127 0.891 1.139 2.063 2.712 3.667 4.889 4.641 0.108 0.045 0.204 0.121 0.306 0.166 0.274 0.134 0.522 0.121 0.751-0.115 0.446-0.452 0.859-0.936 1.26-1.432 0.312-0.388 0.458-0.446 0.898-0.248 1.069 0.497 2.088 1.076 3.126 1.636 0.344 0.185 0.382 0.439 0.331 0.904-0.21 1.891-1.655 2.75-3.304 3.024-0.554 0.089-1.076 0.038-1.598-0.127-1.528-0.484-3.030-1.044-4.38-1.922-1.26-0.821-2.343-1.846-3.291-3.011-0.923-1.139-1.744-2.343-2.425-3.648-0.382-0.745-0.694-1.903-0.694-2.642z"></path>
</symbol>
<symbol id="icon-insta" viewBox="0 0 31 32">
<path fill="#a7a7a7" style="fill: var(--color1, #a7a7a7)" d="M31.425 15.715c0 2.268 0.006 4.535 0 6.809-0.013 3.294-1.546 5.732-4.282 7.455-1.602 1.001-3.382 1.444-5.27 1.444-4.13 0-8.253 0.019-12.383-0.006-2.869-0.019-5.339-1.032-7.297-3.161-1.21-1.317-1.932-2.869-2.141-4.662-0.044-0.38-0.051-0.754-0.051-1.134 0-4.516-0.006-9.032 0-13.548 0.019-3.3 1.552-5.739 4.288-7.461 1.615-1.007 3.401-1.444 5.301-1.444 4.117 0 8.234-0.019 12.351 0.006 2.882 0.019 5.358 1.039 7.316 3.18 1.197 1.311 1.913 2.863 2.116 4.636 0.082 0.697 0.044 1.393 0.051 2.084 0.006 1.938 0 3.87 0 5.802zM2.353 15.715c0 2.325-0.006 4.643 0 6.967 0.006 1.596 0.589 2.971 1.678 4.111 1.463 1.526 3.287 2.268 5.384 2.28 4.161 0.025 8.316 0.006 12.478 0.006 1.343 0 2.622-0.291 3.788-0.963 2.179-1.248 3.408-3.085 3.408-5.656 0-4.573 0-9.14 0-13.713 0-1.583-0.576-2.952-1.66-4.085-1.45-1.533-3.281-2.287-5.371-2.299-4.206-0.032-8.405-0.013-12.611-0.013-1.311 0-2.553 0.31-3.693 0.956-2.173 1.254-3.408 3.091-3.401 5.662 0 2.249 0 4.497 0 6.746z"></path>
<path fill="#a7a7a7" style="fill: var(--color1, #a7a7a7)" d="M15.736 22.43c-4.092 0-7.373-3.268-7.366-7.347 0.006-3.971 3.332-7.227 7.392-7.221 4.079 0 7.373 3.275 7.366 7.316-0.006 4.003-3.319 7.252-7.392 7.252zM15.736 20.086c2.781 0 5.048-2.21 5.048-4.928 0-2.73-2.248-4.953-5.023-4.953-2.781 0-5.048 2.21-5.048 4.928 0 2.73 2.248 4.953 5.023 4.953z"></path>
<path fill="#a7a7a7" style="fill: var(--color1, #a7a7a7)" d="M22.431 7.265c0-0.899 0.69-1.621 1.552-1.621s1.552 0.728 1.552 1.621c0 0.88-0.69 1.603-1.539 1.609-0.861 0.006-1.564-0.709-1.564-1.609z"></path>
</symbol>
</defs>
</svg>
