<!-- Generated by IcoMoon.io -->
<svg version="1.1" xmlns="http://www.w3.org/2000/svg" width="32" height="32" viewBox="0 0 32 32">
<title>vk</title>
<path d="M6.26 0.487c-3.163 0-5.773 2.611-5.773 5.773v19.479c0 3.163 2.611 5.773 5.773 5.773h19.479c3.163 0 5.773-2.611 5.773-5.773v-19.479c0-3.163-2.611-5.773-5.773-5.773h-19.479zM6.26 3.308h19.479c1.638 0 2.953 1.315 2.953 2.953v19.479c0 1.638-1.315 2.953-2.953 2.953h-19.479c-1.638 0-2.953-1.315-2.953-2.953v-19.479c0-1.638 1.315-2.953 2.953-2.953zM15.603 10.668c-1.035-0.010-1.928 0.020-2.424 0.264-0.33 0.162-0.596 0.508-0.441 0.529 0.192 0.025 0.652 0.128 0.881 0.441 0.298 0.405 0.264 1.322 0.264 1.322s0.173 2.509-0.397 2.821c-0.391 0.213-0.919-0.258-2.071-2.248-0.591-1.020-1.014-2.115-1.014-2.115s-0.111-0.24-0.264-0.353c-0.186-0.137-0.441-0.176-0.441-0.176l-2.732 0.044c0 0-0.422-0.004-0.573 0.176-0.135 0.161-0.044 0.485-0.044 0.485s2.182 5.079 4.627 7.624c2.245 2.333 4.804 2.159 4.804 2.159h1.146c0 0 0.351-0.029 0.529-0.22 0.164-0.176 0.132-0.529 0.132-0.529s-0.013-1.536 0.705-1.763c0.708-0.224 1.636 1.498 2.6 2.159 0.729 0.501 1.278 0.397 1.278 0.397l2.556-0.044c0 0 1.344-0.085 0.705-1.146-0.052-0.086-0.351-0.771-1.895-2.204-1.616-1.501-1.419-1.283 0.529-3.878 1.186-1.581 1.691-2.54 1.542-2.953-0.141-0.393-1.014-0.264-1.014-0.264h-2.909c0 0-0.237-0.008-0.397 0.088-0.157 0.093-0.264 0.308-0.264 0.308s-0.446 1.207-1.058 2.248c-1.292 2.194-1.816 2.295-2.027 2.159-0.492-0.317-0.353-1.259-0.353-1.939 0-2.127 0.334-3.031-0.617-3.261-0.316-0.076-0.558-0.124-1.366-0.132z"></path>
</svg>
