<!-- Generated by IcoMoon.io -->
<svg version="1.1" xmlns="http://www.w3.org/2000/svg" width="32" height="32" viewBox="0 0 32 32">
<title>whatsApp</title>
<path fill="#a7a7a7" d="M31.618 15.494c-0.006 2.756-0.605 5.188-1.814 7.448-1.139 2.133-2.712 3.909-4.692 5.309-1.738 1.229-3.641 2.069-5.723 2.502-2.304 0.477-4.609 0.426-6.894-0.121-1.209-0.293-2.368-0.738-3.457-1.33-0.185-0.102-0.344-0.108-0.541-0.045-2.4 0.77-4.8 1.534-7.2 2.298-0.274 0.089-0.541 0.172-0.815 0.274-0.191 0.070-0.204 0-0.153-0.159 0.28-0.821 0.554-1.642 0.834-2.47 0.598-1.789 1.197-3.578 1.808-5.36 0.083-0.236-0.038-0.388-0.134-0.554-0.751-1.305-1.286-2.693-1.617-4.157-0.719-3.157-0.465-6.251 0.745-9.249 0.7-1.732 1.7-3.285 2.979-4.66 1.63-1.757 3.558-3.049 5.786-3.915 2.082-0.808 4.233-1.12 6.448-0.987 3.037 0.185 5.799 1.19 8.225 3.024 3.138 2.368 5.112 5.481 5.901 9.345 0.21 0.987 0.286 1.986 0.312 2.807zM16.118 2.897c-0.592-0.025-1.286 0.045-1.98 0.146-0.274 0.038-0.541 0.095-0.808 0.166-4.138 1.050-7.111 3.52-8.861 7.41-1.012 2.247-1.286 4.622-0.904 7.053 0.299 1.922 1.012 3.692 2.126 5.29 0.121 0.178 0.14 0.331 0.070 0.528-0.471 1.381-0.929 2.769-1.394 4.157-0.025 0.076-0.102 0.166-0.032 0.236 0.070 0.076 0.159-0.006 0.236-0.032 1.394-0.446 2.788-0.885 4.17-1.35 0.318-0.108 0.547-0.057 0.821 0.108 3.126 1.878 6.468 2.374 9.988 1.439 2.674-0.707 4.876-2.164 6.62-4.316 1.687-2.082 2.629-4.462 2.82-7.123 0.146-2.043-0.172-4.029-0.987-5.927-1.025-2.387-2.623-4.297-4.781-5.716-2.113-1.388-4.45-2.101-7.104-2.069z"></path>
<path fill="#a7a7a7" d="M8.517 11.988c0.025-1.432 0.586-2.61 1.681-3.527 0.312-0.261 0.688-0.369 1.101-0.299 0.178 0.025 0.363 0.051 0.535 0.032 0.433-0.032 0.681 0.21 0.815 0.567 0.407 1.069 0.802 2.145 1.203 3.215 0.076 0.204 0.057 0.388-0.038 0.579-0.248 0.516-0.643 0.917-1.038 1.318-0.344 0.35-0.363 0.465-0.127 0.891 1.139 2.063 2.712 3.667 4.889 4.641 0.108 0.045 0.204 0.121 0.306 0.166 0.274 0.134 0.522 0.121 0.751-0.115 0.446-0.452 0.859-0.936 1.26-1.432 0.312-0.388 0.458-0.446 0.898-0.248 1.069 0.497 2.088 1.076 3.126 1.636 0.344 0.185 0.382 0.439 0.331 0.904-0.21 1.891-1.655 2.75-3.304 3.024-0.554 0.089-1.076 0.038-1.598-0.127-1.528-0.484-3.030-1.044-4.38-1.922-1.26-0.821-2.343-1.846-3.291-3.011-0.923-1.139-1.744-2.343-2.425-3.648-0.382-0.745-0.694-1.903-0.694-2.642z"></path>
</svg>
